<svg width="250" height="250" viewBox="0 0 250 250" fill="none" xmlns="http://www.w3.org/2000/svg">
<path d="M239.583 125L214.166 96.0415L217.708 57.7082L180.104 49.1665L160.416 16.0415L124.999 31.2498L89.5827 16.0415L69.8952 49.1665L32.291 57.604L35.8327 95.9373L10.416 125L35.8327 153.958L32.291 192.396L69.8952 200.937L89.5827 234.062L124.999 218.75L160.416 233.958L180.104 200.833L217.708 192.291L214.166 153.958L239.583 125ZM104.166 177.083L62.4993 135.416L77.1868 120.729L104.166 147.604L172.812 78.9582L187.499 93.7498L104.166 177.083Z" fill="#C41230"/>
<circle cx="124.5" cy="125.5" r="72.5" fill="#C41230"/>
<path d="M162.867 97.1298C163.534 96.4844 164.066 95.7123 164.432 94.8585C164.798 94.0047 164.991 93.0863 165 92.157C165.008 91.2276 164.832 90.3058 164.482 89.4454C164.131 88.585 163.613 87.8033 162.959 87.1458C162.304 86.4883 161.525 85.9682 160.668 85.6158C159.81 85.2635 158.892 85.0859 157.965 85.0936C157.039 85.1012 156.123 85.2939 155.271 85.6603C154.42 86.0267 153.65 86.5596 153.006 87.2278L125.04 115.273L97.0825 87.2278C96.4437 86.5401 95.6734 85.9885 94.8175 85.6059C93.9616 85.2234 93.0376 85.0177 92.1007 85.0011C91.1638 84.9845 90.2332 85.1574 89.3644 85.5094C88.4955 85.8615 87.7063 86.3855 87.0437 87.0501C86.3811 87.7148 85.8588 88.5065 85.5078 89.3781C85.1569 90.2496 84.9846 91.1832 85.0011 92.123C85.0176 93.0628 85.2227 93.9897 85.6041 94.8483C85.9854 95.7069 86.5353 96.4797 87.2208 97.1205L115.159 125.175L87.2022 153.219C85.9697 154.546 85.2987 156.301 85.3306 158.115C85.3625 159.928 86.0948 161.658 87.3732 162.941C88.6516 164.223 90.3763 164.958 92.184 164.99C93.9917 165.022 95.7412 164.348 97.0639 163.112L125.04 135.067L152.996 163.121C154.319 164.358 156.069 165.031 157.876 164.999C159.684 164.967 161.409 164.232 162.687 162.95C163.966 161.667 164.698 159.937 164.73 158.124C164.762 156.311 164.091 154.556 162.858 153.229L134.92 125.175L162.867 97.1298Z" fill="white"/>
</svg>
