<svg width="30" height="30" viewBox="0 0 30 30" fill="none" xmlns="http://www.w3.org/2000/svg">
<g clip-path="url(#clip0_876_933)">
<path d="M29.1504 10.957C28.8281 11.2793 28.5156 11.5723 28.2129 11.8359C27.9102 12.0996 27.5928 12.3291 27.2607 12.5244C26.9287 12.7197 26.5723 12.8613 26.1914 12.9492C25.8105 13.0371 25.3711 13.0908 24.873 13.1104C24.541 13.1104 24.2236 13.0811 23.9209 13.0225L18.3691 18.5742C18.4961 18.9453 18.5889 19.3262 18.6475 19.7168C18.7061 20.1074 18.7354 20.498 18.7354 20.8887C18.7354 21.5234 18.6719 22.0996 18.5449 22.6172C18.418 23.1348 18.2373 23.623 18.0029 24.082C17.7686 24.541 17.4756 24.9756 17.124 25.3857C16.7725 25.7959 16.3867 26.2207 15.9668 26.6602L10.3125 21.0059L1.99219 29.3408L0 30L0.65918 28.0078L8.99414 19.6875L3.33984 14.0332L3.99902 13.374C4.68262 12.6904 5.46387 12.168 6.34277 11.8066C7.22168 11.4453 8.14941 11.2646 9.12598 11.2646C9.92676 11.2646 10.6934 11.3867 11.4258 11.6309L16.9775 6.0791C16.9189 5.77637 16.8896 5.45898 16.8896 5.12695C16.8896 4.64844 16.9385 4.21875 17.0361 3.83789C17.1338 3.45703 17.2803 3.0957 17.4756 2.75391C17.6709 2.41211 17.8955 2.09473 18.1494 1.80176C18.4033 1.50879 18.7012 1.19141 19.043 0.849609L29.1504 10.957ZM24.873 11.2354C25.4102 11.2354 25.918 11.1084 26.3965 10.8545L19.1455 3.60352C18.8916 4.08203 18.7646 4.58984 18.7646 5.12695C18.7646 5.40039 18.7939 5.6543 18.8525 5.88867C18.9111 6.12305 18.9844 6.37207 19.0723 6.63574L11.8652 13.8281C11.6211 13.7305 11.3916 13.6377 11.1768 13.5498C10.9619 13.4619 10.7471 13.3887 10.5322 13.3301C10.3174 13.2715 10.0977 13.2275 9.87305 13.1982C9.64844 13.1689 9.39941 13.1494 9.12598 13.1396C8.56934 13.1396 8.03223 13.2178 7.51465 13.374C6.99707 13.5303 6.50879 13.7695 6.0498 14.0918L15.9082 23.9502C16.2207 23.501 16.46 23.0176 16.626 22.5C16.792 21.9824 16.875 21.4453 16.875 20.8887C16.875 20.625 16.8604 20.3809 16.8311 20.1562C16.8018 19.9316 16.7529 19.707 16.6846 19.4824C16.6162 19.2578 16.5381 19.0381 16.4502 18.8232C16.3623 18.6084 16.2695 18.3789 16.1719 18.1348L23.3643 10.9277C23.6182 11.0059 23.8623 11.0742 24.0967 11.1328C24.3311 11.1914 24.5898 11.2256 24.873 11.2354Z" fill="black"/>
</g>
<defs>
<clipPath id="clip0_876_933">
<rect width="30" height="30" fill="white"/>
</clipPath>
</defs>
</svg>
