<svg width="24" height="24" viewBox="0 0 24 24" fill="none" xmlns="http://www.w3.org/2000/svg">
<path fill-rule="evenodd" clip-rule="evenodd" d="M7.7585 5.7675C8.31402 5.20777 8.97477 4.76344 9.70271 4.4601C10.4306 4.15675 11.2114 4.00039 12 4C13.59 4 15.116 4.635 16.2415 5.7675C17.3685 6.9032 18.0006 8.43851 18 10.0385C18 12.8015 16.468 15.3025 14.872 17.149C14.1995 17.9234 13.4703 18.6467 12.6905 19.313C12.465 19.5063 12.2348 19.6941 12 19.876C11.7653 19.6939 11.5351 19.5062 11.3095 19.313C10.5297 18.6467 9.80055 17.9234 9.128 17.149C7.532 15.3025 6 12.8015 6 10.0385C6 8.436 6.633 6.9 7.7585 5.7675ZM11.712 20.9085L12 20.5L12.288 20.9085C12.2037 20.9679 12.1031 20.9998 12 20.9998C11.8969 20.9998 11.7963 20.9679 11.712 20.9085ZM11.712 20.9085L12 20.5L12.288 20.9085L12.29 20.9075L12.295 20.904L12.31 20.8925L12.369 20.85C12.4197 20.813 12.4913 20.759 12.584 20.688C12.768 20.547 13.029 20.3395 13.3405 20.073C14.1582 19.3741 14.9228 18.6153 15.628 17.803C17.282 15.89 19 13.16 19 10.038C19 8.173 18.263 6.383 16.951 5.063C16.3026 4.40965 15.5313 3.89102 14.6816 3.53696C13.8319 3.1829 12.9205 3.00041 12 3C11.0795 3.00035 10.1682 3.18276 9.31849 3.53673C8.46879 3.8907 7.69749 4.40924 7.049 5.0625C5.73585 6.38561 4.99928 8.17437 5 10.0385C5 13.16 6.718 15.89 8.372 17.803C9.07718 18.6153 9.84179 19.3741 10.6595 20.073C10.9715 20.3395 11.232 20.547 11.416 20.688C11.5063 20.7575 11.5974 20.8259 11.6895 20.893L11.7055 20.904L11.71 20.9075L11.712 20.9085ZM10 10C10 9.46957 10.2107 8.96086 10.5858 8.58579C10.9609 8.21071 11.4696 8 12 8C12.5304 8 13.0391 8.21071 13.4142 8.58579C13.7893 8.96086 14 9.46957 14 10C14 10.5304 13.7893 11.0391 13.4142 11.4142C13.0391 11.7893 12.5304 12 12 12C11.4696 12 10.9609 11.7893 10.5858 11.4142C10.2107 11.0391 10 10.5304 10 10ZM12 7C11.2044 7 10.4413 7.31607 9.87868 7.87868C9.31607 8.44129 9 9.20435 9 10C9 10.7956 9.31607 11.5587 9.87868 12.1213C10.4413 12.6839 11.2044 13 12 13C12.7957 13 13.5587 12.6839 14.1213 12.1213C14.6839 11.5587 15 10.7956 15 10C15 9.20435 14.6839 8.44129 14.1213 7.87868C13.5587 7.31607 12.7957 7 12 7Z" fill="black"/>
</svg>
