<svg width="27" height="27" viewBox="0 0 27 27" fill="none" xmlns="http://www.w3.org/2000/svg">
<path d="M25.0938 26.625C22.0556 26.625 19.0538 25.9629 16.0885 24.6388C13.1233 23.3146 10.4253 21.4367 7.99479 19.0052C5.56424 16.5737 3.68687 13.8758 2.36271 10.9115C1.03854 7.94715 0.375972 4.94542 0.375 1.90625C0.375 1.46875 0.520833 1.10417 0.8125 0.8125C1.10417 0.520833 1.46875 0.375 1.90625 0.375H7.8125C8.15278 0.375 8.4566 0.490694 8.72396 0.722083C8.99132 0.953472 9.14931 1.22667 9.19792 1.54167L10.1458 6.64583C10.1944 7.03472 10.1823 7.36285 10.1094 7.63021C10.0365 7.89757 9.90278 8.12847 9.70833 8.32292L6.17188 11.8958C6.65799 12.7951 7.235 13.6638 7.90292 14.5019C8.57083 15.3399 9.30632 16.1483 10.1094 16.9271C10.8628 17.6806 11.6528 18.3796 12.4792 19.0242C13.3056 19.6688 14.1806 20.2579 15.1042 20.7917L18.5312 17.3646C18.75 17.1458 19.0358 16.982 19.3888 16.8731C19.7417 16.7642 20.0878 16.7336 20.4271 16.7812L25.4583 17.8021C25.7986 17.8993 26.0781 18.0758 26.2969 18.3315C26.5156 18.5872 26.625 18.8725 26.625 19.1875V25.0938C26.625 25.5313 26.4792 25.8958 26.1875 26.1875C25.8958 26.4792 25.5313 26.625 25.0938 26.625Z" fill="#C41230"/>
</svg>
