<svg width="32" height="19" viewBox="0 0 32 19" fill="none" xmlns="http://www.w3.org/2000/svg">
<path fill-rule="evenodd" clip-rule="evenodd" d="M2.3763 0.0214844H21.3346C21.7214 0.0214844 22.0923 0.17513 22.3658 0.448621C22.6393 0.722111 22.793 1.09304 22.793 1.47982V17.5215C22.793 17.9083 22.6393 18.2792 22.3658 18.5527C22.0923 18.8262 21.7214 18.9798 21.3346 18.9798H2.3763C1.98953 18.9798 1.6186 18.8262 1.3451 18.5527C1.07161 18.2792 0.917969 17.9083 0.917969 17.5215V1.47982C0.917969 1.09304 1.07161 0.722111 1.3451 0.448621C1.6186 0.17513 1.98953 0.0214844 2.3763 0.0214844ZM24.2513 6.58398L29.1732 2.64648C29.3876 2.47481 29.6461 2.36719 29.919 2.336C30.1919 2.3048 30.4681 2.35131 30.7157 2.47017C30.9633 2.58903 31.1723 2.77541 31.3187 3.00784C31.4651 3.24027 31.5428 3.50931 31.543 3.78398V15.2173C31.5428 15.492 31.4651 15.761 31.3187 15.9935C31.1723 16.2259 30.9633 16.4123 30.7157 16.5311C30.4681 16.65 30.1919 16.6965 29.919 16.6653C29.6461 16.6341 29.3876 16.5265 29.1732 16.3548L24.2513 12.4173V6.58398Z" fill="#FFA12E"/>
</svg>
