<svg width="19" height="19" viewBox="0 0 19 19" fill="none" xmlns="http://www.w3.org/2000/svg">
<path fill-rule="evenodd" clip-rule="evenodd" d="M7.2225 9.98457L4.4125 9.04832C1.47125 8.06832 0 7.57832 0 6.67707C0 5.77707 1.47125 5.28582 4.4125 4.30582L15.0538 0.758321C17.1238 0.0683211 18.1588 -0.276679 18.705 0.269571C19.2513 0.815821 18.9063 1.85082 18.2175 3.91957L14.6688 14.5621C13.6888 17.5033 13.1988 18.9746 12.2975 18.9746C11.3975 18.9746 10.9063 17.5033 9.92625 14.5621L8.98875 11.7533L14.4313 6.31082C14.659 6.07507 14.7849 5.75932 14.7821 5.43157C14.7792 5.10383 14.6478 4.79031 14.416 4.55855C14.1843 4.32679 13.8707 4.19533 13.543 4.19248C13.2153 4.18963 12.8995 4.31562 12.6638 4.54332L7.2225 9.98457Z" fill="white"/>
</svg>
