<svg width="4" height="32" viewBox="0 0 4 32" fill="none" xmlns="http://www.w3.org/2000/svg">
<path d="M1.99812 3.84C2.50734 3.84 2.9957 3.63771 3.35577 3.27765C3.71584 2.91758 3.91812 2.42922 3.91812 1.92C3.91812 1.41078 3.71584 0.922425 3.35577 0.562355C2.9957 0.202285 2.50734 0 1.99812 0C1.48891 0 1.00055 0.202285 0.64048 0.562355C0.28041 0.922425 0.078125 1.41078 0.078125 1.92C0.078125 2.42922 0.28041 2.91758 0.64048 3.27765C1.00055 3.63771 1.48891 3.84 1.99812 3.84ZM1.99812 17.92C2.50734 17.92 2.9957 17.7177 3.35577 17.3576C3.71584 16.9976 3.91812 16.5092 3.91812 16C3.91812 15.4908 3.71584 15.0024 3.35577 14.6424C2.9957 14.2823 2.50734 14.08 1.99812 14.08C1.48891 14.08 1.00055 14.2823 0.64048 14.6424C0.28041 15.0024 0.078125 15.4908 0.078125 16C0.078125 16.5092 0.28041 16.9976 0.64048 17.3576C1.00055 17.7177 1.48891 17.92 1.99812 17.92ZM1.99812 32C2.50734 32 2.9957 31.7977 3.35577 31.4376C3.71584 31.0776 3.91812 30.5892 3.91812 30.08C3.91812 29.5708 3.71584 29.0824 3.35577 28.7224C2.9957 28.3623 2.50734 28.16 1.99812 28.16C1.48891 28.16 1.00055 28.3623 0.64048 28.7224C0.28041 29.0824 0.078125 29.5708 0.078125 30.08C0.078125 30.5892 0.28041 31.0776 0.64048 31.4376C1.00055 31.7977 1.48891 32 1.99812 32Z" fill="black"/>
</svg>
