<svg width="60" height="60" viewBox="0 0 60 60" fill="none" xmlns="http://www.w3.org/2000/svg">
<g opacity="0.3">
<path d="M15 50C13.625 50 12.4483 49.5108 11.47 48.5325C10.4917 47.5541 10.0017 46.3766 10 45V40C10 39.2916 10.24 38.6983 10.72 38.22C11.2 37.7416 11.7933 37.5016 12.5 37.5C13.2067 37.4983 13.8008 37.7383 14.2825 38.22C14.7642 38.7016 15.0033 39.295 15 40V45H45V40C45 39.2916 45.24 38.6983 45.72 38.22C46.2 37.7416 46.7933 37.5016 47.5 37.5C48.2067 37.4983 48.8008 37.7383 49.2825 38.22C49.7642 38.7016 50.0033 39.295 50 40V45C50 46.375 49.5108 47.5525 48.5325 48.5325C47.5542 49.5125 46.3767 50.0016 45 50H15ZM27.5 19.625L22.8125 24.3125C22.3125 24.8125 21.7192 25.0525 21.0325 25.0325C20.3458 25.0125 19.7517 24.7516 19.25 24.25C18.7917 23.75 18.5517 23.1666 18.53 22.5C18.5083 21.8333 18.7483 21.25 19.25 20.75L28.25 11.75C28.5 11.5 28.7708 11.3233 29.0625 11.22C29.3542 11.1166 29.6667 11.0641 30 11.0625C30.3333 11.0608 30.6458 11.1133 30.9375 11.22C31.2292 11.3266 31.5 11.5033 31.75 11.75L40.75 20.75C41.25 21.25 41.49 21.8333 41.47 22.5C41.45 23.1666 41.21 23.75 40.75 24.25C40.25 24.75 39.6567 25.0108 38.97 25.0325C38.2833 25.0541 37.6892 24.8141 37.1875 24.3125L32.5 19.625V37.5C32.5 38.2083 32.26 38.8025 31.78 39.2825C31.3 39.7625 30.7067 40.0016 30 40C29.2933 39.9983 28.7 39.7583 28.22 39.28C27.74 38.8016 27.5 38.2083 27.5 37.5V19.625Z" fill="#333333"/>
</g>
</svg>
