<svg width="40" height="40" viewBox="0 0 40 40" fill="none" xmlns="http://www.w3.org/2000/svg">
<path d="M20.1695 16C15.6514 15.9301 12.2001 12.2981 12.1695 8C12.2442 3.52223 15.9041 0.0314 20.1695 0C24.6916 0.171 28.1374 3.63233 28.1695 8C28.0806 12.4813 24.4393 15.9697 20.1695 16ZM26.6376 17.6596C32.324 17.726 35.2074 22.7139 35.2336 27.7019V40H29.6591L29.6591 29.1915C29.5234 28.4443 29.0173 28.1909 28.5537 28.2642C28.1196 28.3328 27.7227 28.6876 27.7017 29.1915V40H12.2127V29.1915C12.0941 28.4804 11.6417 28.207 11.2016 28.2346C10.7304 28.2642 10.2732 28.6391 10.2552 29.1915V40H4.76586V27.7019C4.73319 22.3861 8.09589 17.699 13.4038 17.6596H26.6376Z" fill="#C41230"/>
</svg>
