<svg width="41" height="36" viewBox="0 0 41 36" fill="none" xmlns="http://www.w3.org/2000/svg">
<path d="M6.10658 0C7.7089 3.39666 10.2525 2.30748 13.5929 1.29665C26.6256 -2.64737 36.5198 4.92836 37.4678 14.6825C39.0204 14.0148 40.8997 15.3391 40.828 16.8045C40.7563 18.27 39.5038 19.5612 37.4678 19.1043C37.4843 22.3884 33.5734 26.0002 40.4153 28.716C38.2601 30.0392 36.2903 31.8247 32.929 30.1308C28.3228 35.3615 21.9819 37.1106 14.1822 34.3175C6.10657 31.4252 3.57067 23.5979 3.09946 18.1023C1.6119 17.9125 0.0724786 17.1201 0.00185275 15.2662C-0.0687731 13.4145 1.8933 12.2337 3.57067 13.6495C3.74723 10.8731 5.4577 8.32502 7.16817 5.77808C4.91697 3.76193 5.07257 1.86055 6.10658 0Z" fill="#FFA12E"/>
<path d="M10.0508 7.9575C15.7814 8.58431 20.8808 8.02923 24.7288 5.12695C26.7439 8.75315 28.7567 9.8324 30.7717 10.7583M28.2369 20.5466C29.6936 20.2508 29.8404 21.2164 29.7101 21.7847C27.5274 31.3137 14.6746 30.603 12.0846 23.0229C11.7304 21.9856 12.4532 21.351 13.5876 21.5199C18.4233 22.235 23.3229 21.543 28.2369 20.5466Z" stroke="#FFF8E7" stroke-width="1.5" stroke-linecap="round" stroke-linejoin="round"/>
<path d="M13.2235 15.611C13.8744 15.611 14.4021 15.0834 14.4021 14.4325C14.4021 13.7816 13.8744 13.2539 13.2235 13.2539C12.5726 13.2539 12.0449 13.7816 12.0449 14.4325C12.0449 15.0834 12.5726 15.611 13.2235 15.611Z" fill="#FFF8E7" stroke="#FFF8E7" stroke-width="1.5" stroke-linecap="round" stroke-linejoin="round"/>
<path d="M26.7274 15.4333C27.3783 15.4333 27.906 14.9056 27.906 14.2547C27.906 13.6038 27.3783 13.0762 26.7274 13.0762C26.0765 13.0762 25.5488 13.6038 25.5488 14.2547C25.5488 14.9056 26.0765 15.4333 26.7274 15.4333Z" fill="#FFF8E7" stroke="#FFF8E7" stroke-width="1.5" stroke-linecap="round" stroke-linejoin="round"/>
<path d="M17.9141 17.3207C17.9141 16.3441 18.7053 15.5518 19.6819 15.5518C20.6574 15.5518 21.4487 16.3441 21.4487 17.3196L17.9141 17.3207Z" fill="#FFF8E7" stroke="#FFF8E7" stroke-width="1.5" stroke-linecap="round" stroke-linejoin="round"/>
</svg>
