<svg width="14" height="18" viewBox="0 0 14 18" fill="none" xmlns="http://www.w3.org/2000/svg">
<path fill-rule="evenodd" clip-rule="evenodd" d="M2.7585 2.7675C3.31402 2.20777 3.97477 1.76344 4.70271 1.4601C5.43064 1.15675 6.21139 1.00039 7 1C8.59 1 10.116 1.635 11.2415 2.7675C12.3685 3.9032 13.0006 5.43851 13 7.0385C13 9.8015 11.468 12.3025 9.872 14.149C9.19945 14.9234 8.47027 15.6467 7.6905 16.313C7.46501 16.5063 7.23478 16.6941 7 16.876C6.76535 16.6939 6.53511 16.5062 6.3095 16.313C5.52973 15.6467 4.80055 14.9234 4.128 14.149C2.532 12.3025 1 9.8015 1 7.0385C1 5.436 1.633 3.9 2.7585 2.7675ZM6.712 17.9085L7 17.5L7.288 17.9085C7.20371 17.9679 7.10312 17.9998 7 17.9998C6.89689 17.9998 6.79629 17.9679 6.712 17.9085ZM6.712 17.9085L7 17.5L7.288 17.9085L7.29 17.9075L7.295 17.904L7.31 17.8925L7.369 17.85C7.41967 17.813 7.49133 17.759 7.584 17.688C7.768 17.547 8.029 17.3395 8.3405 17.073C9.15821 16.3741 9.92282 15.6153 10.628 14.803C12.282 12.89 14 10.16 14 7.038C14 5.173 13.263 3.383 11.951 2.063C11.3026 1.40965 10.5313 0.891018 9.68157 0.536961C8.83186 0.182903 7.92052 0.000414298 7 0C6.07952 0.000348806 5.16819 0.182759 4.31849 0.53673C3.46879 0.890701 2.69749 1.40924 2.049 2.0625C0.735851 3.38561 -0.000718454 5.17437 5.25864e-07 7.0385C5.25864e-07 10.16 1.718 12.89 3.372 14.803C4.07718 15.6153 4.84179 16.3741 5.6595 17.073C5.9715 17.3395 6.232 17.547 6.416 17.688C6.50627 17.7575 6.59744 17.8259 6.6895 17.893L6.7055 17.904L6.71 17.9075L6.712 17.9085ZM5 7C5 6.46957 5.21071 5.96086 5.58579 5.58579C5.96086 5.21071 6.46957 5 7 5C7.53043 5 8.03914 5.21071 8.41421 5.58579C8.78929 5.96086 9 6.46957 9 7C9 7.53043 8.78929 8.03914 8.41421 8.41421C8.03914 8.78929 7.53043 9 7 9C6.46957 9 5.96086 8.78929 5.58579 8.41421C5.21071 8.03914 5 7.53043 5 7ZM7 4C6.20435 4 5.44129 4.31607 4.87868 4.87868C4.31607 5.44129 4 6.20435 4 7C4 7.79565 4.31607 8.55871 4.87868 9.12132C5.44129 9.68393 6.20435 10 7 10C7.79565 10 8.55871 9.68393 9.12132 9.12132C9.68393 8.55871 10 7.79565 10 7C10 6.20435 9.68393 5.44129 9.12132 4.87868C8.55871 4.31607 7.79565 4 7 4Z" fill="black"/>
</svg>
