<svg width="88" height="80" viewBox="0 0 88 80" fill="none" xmlns="http://www.w3.org/2000/svg">
<path d="M26.1726 58.4614C26.5196 58.7645 26.835 59.1163 27.2192 59.3594C36.9221 65.4457 46.8401 71.143 57.5896 75.2244C63.4818 77.4638 69.4573 79.4459 75.88 79.463C76.356 79.463 76.832 79.4316 77.3079 79.3973C77.3853 79.3915 77.4542 79.3029 77.6033 79.1999C77.1789 77.8957 76.6743 76.9862 74.9309 76.889C67.3814 76.4628 60.4253 73.7743 53.5725 70.857C45.22 67.3019 37.3207 62.8716 29.599 58.1181C29.4815 58.0466 29.3897 57.9351 28.9998 57.5862C31.3768 57.1943 33.4899 56.6852 35.629 56.5251C39.2417 56.2534 42.8689 56.1304 46.4931 56.1046C47.4737 56.0989 48.5604 56.4965 49.4206 57.0084C55.938 60.8781 62.4238 64.8022 68.8924 68.752C73.1991 71.3833 76.3359 75.0585 78.5495 79.852C75.8141 80.118 73.288 80.0265 70.7619 79.5689C60.1558 77.644 50.5188 73.1851 41.1456 68.1228C36.1995 65.4514 31.4427 62.434 26.6142 59.5511C26.2873 59.3566 26.0723 58.9733 25.8027 58.6787L26.1726 58.4528V58.4614Z" fill="#FFA12E"/>
<path d="M9.54397 79.3419C12.9102 79.7623 16.0871 79.1846 19.2354 78.4495C26.5183 76.7535 33.3826 73.9335 40.0663 70.6358C40.5996 70.3726 41.1501 70.1524 41.7265 69.9894C37.6406 74.4111 14.7854 81.1409 8.69238 79.7395C10.6393 75.4007 13.5123 71.8627 17.4634 69.2887C20.8956 67.0521 24.4539 65.01 27.9835 62.9221C28.3247 62.7219 28.9527 62.6332 29.2652 62.8134C32.402 64.6124 35.5016 66.48 38.885 68.4878C36.1525 69.6919 33.6378 70.8732 31.0687 71.9142C25.8044 74.0479 20.4225 75.8211 14.7796 76.682C13.9309 76.8107 13.0679 76.9366 12.2163 76.9051C10.5246 76.8422 9.93679 77.8718 9.5411 79.3362L9.54397 79.3419Z" fill="#FFA12E"/>
<path d="M66.0873 44.6173C65.8751 44.1025 65.6658 43.5906 65.4536 43.0757C65.0579 43.459 64.6651 43.8394 64.0314 44.4543C63.0652 44.2255 61.6659 43.8937 60.2695 43.562C60.2409 43.4504 60.2093 43.3389 60.1807 43.2273C64.1719 40.9421 68.1288 38.594 72.1631 36.3917C75.8045 34.4039 79.5951 32.7479 83.6753 31.8012C84.9799 31.4981 85.7311 31.8155 85.5505 33.1455C85.3039 34.9502 84.8423 36.7292 84.3806 38.4939C84.3204 38.7255 83.7011 38.9601 83.3541 38.9458C80.9886 38.8371 79.0016 39.7552 77.0977 41.0336C75.2397 42.2778 73.2928 43.3875 71.4348 44.6345C69.5969 45.8672 67.7704 46.0388 66.0873 44.6231V44.6173ZM73.2899 40.1327C72.8254 39.7066 72.553 39.4549 72.2806 39.2032C72.0226 39.4806 71.6298 39.7294 71.5581 40.0498C71.5122 40.2557 71.928 40.7734 72.1516 40.782C72.4527 40.7934 72.7709 40.453 73.2899 40.1327Z" fill="#FFA12E"/>
<path d="M2.01408 31.5243C11.3644 33.3119 18.9455 38.6832 27.3065 43.4481C26.1883 43.7169 25.4829 43.8857 24.7776 44.0544C24.0894 44.2175 23.3984 44.3776 23.0257 44.4634C22.521 43.8885 22.1597 43.471 21.7956 43.0563C21.5547 43.5882 21.3139 44.1173 21.0759 44.6493C19.5534 45.822 17.7871 46.0079 15.9377 44.7351C14.0166 43.4138 11.9636 42.284 10.0196 40.9913C8.10714 39.7214 6.11723 38.8061 3.74885 38.952C3.43345 38.972 2.92588 38.809 2.80832 38.5802C1.72162 36.4208 0.978988 34.1957 2.01121 31.5215L2.01408 31.5243ZM7.7688 34.8535C7.43619 35.497 7.12652 35.8288 7.14373 36.1434C7.15806 36.4065 7.55375 36.6496 7.78313 36.9013C8.04406 36.6325 8.47702 36.3836 8.51143 36.0891C8.54297 35.803 8.16448 35.4713 7.7688 34.8535ZM15.003 38.8262C14.6073 39.401 14.2173 39.7185 14.2374 40.0045C14.2575 40.2991 14.6818 40.5651 14.9284 40.8425C15.1635 40.6051 15.5707 40.3763 15.5879 40.1247C15.608 39.8015 15.3098 39.4582 15.0058 38.8262H15.003Z" fill="#FFA12E"/>
<path d="M67.0869 65.1081C69.7363 64.9137 72.0875 64.7878 74.4215 64.5333C75.0465 64.4646 75.792 64.1386 76.1992 63.681C77.6529 62.0536 78.9833 60.3203 80.4542 58.5156C82.7452 60.1144 84.953 61.656 87.4992 63.4321C84.1645 63.7954 81.2714 64.11 78.2034 64.4446V71.9009C74.5017 69.6385 70.9721 67.4849 67.0869 65.111V65.1081Z" fill="#C41230"/>
<path d="M0 63.1853C2.21929 61.6466 4.43568 60.1079 6.72091 58.5205C8.1861 60.3195 9.51939 62.0499 10.9731 63.6744C11.3831 64.132 12.12 64.4666 12.7451 64.5353C15.0877 64.7956 17.4446 64.9214 20.0682 65.1188C16.2203 67.464 12.6877 69.6177 9.01474 71.86V64.4495C5.94674 64.1177 3.03933 63.8031 0.12903 63.4885C0.0860201 63.3884 0.0430094 63.2883 0 63.1853Z" fill="#C41230"/>
<path d="M19.4845 60.8545C20.0952 61.9613 20.5941 62.8651 21.2565 64.0721C19.0142 63.7947 17.0358 63.5487 15.0574 63.3056C15.0086 63.2112 14.9599 63.1168 14.9111 63.0253C16.3878 62.3246 17.8644 61.6239 19.4845 60.8574V60.8545Z" fill="#C41230"/>
<path d="M65.8965 64.0881C66.5588 62.8983 67.0807 61.9602 67.6771 60.8877C69.2512 61.6142 70.7422 62.3034 72.2361 62.9927C72.2246 63.0843 72.216 63.1758 72.2045 63.2673C70.1946 63.5304 68.1817 63.7907 65.8965 64.0881Z" fill="#C41230"/>
<path d="M58.0986 57.6053C56.6535 58.8028 55.2505 58.9887 53.8894 58.163C53.141 57.7054 52.4013 57.2306 51.7676 56.4727C53.8177 56.8387 55.8678 57.2077 58.0986 57.6053Z" fill="#FFA12E"/>
<path d="M58.166 60.5832C59.1352 59.8853 60.1072 59.1875 61.0591 58.5039C61.3114 59.1989 60.305 60.0684 58.166 60.5832Z" fill="#FFA12E"/>
<path d="M73.2891 40.1335C72.7672 40.4539 72.4518 40.7942 72.1507 40.7828C71.9271 40.7742 71.5113 40.2565 71.5572 40.0506C71.6289 39.7303 72.0217 39.4814 72.2798 39.204C72.5522 39.4557 72.8246 39.7074 73.2891 40.1335Z" fill="white"/>
<path d="M7.76833 34.8535C8.16115 35.4713 8.5425 35.8031 8.51096 36.0891C8.47655 36.3837 8.04072 36.6325 7.78267 36.9013C7.55615 36.6497 7.1576 36.4066 7.14326 36.1434C7.12606 35.8288 7.43573 35.497 7.76833 34.8535Z" fill="white"/>
<path d="M15.0026 38.8271C15.3065 39.4592 15.6047 39.8024 15.5846 40.1256C15.5703 40.3773 15.1603 40.6061 14.9252 40.8435C14.6786 40.5661 14.2542 40.3001 14.2341 40.0055C14.2141 39.7166 14.604 39.402 14.9997 38.8271H15.0026Z" fill="white"/>
<path d="M54.9313 51.142C54.1256 51.0762 53.4862 50.5785 53.7242 49.7062C53.8675 49.1771 54.5958 48.4506 55.0431 48.462C55.5162 48.4735 56.256 49.2 56.3621 49.7205C56.5255 50.5099 56.0037 51.1563 54.9313 51.1448V51.142Z" fill="black"/>
<path d="M62.0062 49.5107C62.3904 50.0055 62.9925 50.4574 63.113 51.0094C63.2936 51.8531 62.7374 52.5996 61.8399 52.4508C61.2922 52.3593 60.4865 51.7129 60.4378 51.2468C60.3833 50.7119 61.0342 50.1056 61.3783 49.5278C61.5876 49.5221 61.7969 49.5164 62.0033 49.5078L62.0062 49.5107Z" fill="black"/>
<path d="M12.2177 62.9214C9.70026 59.638 7.24872 56.4376 4.67676 53.0798C14.4485 47.5713 24.7994 44.4623 35.7955 43.447C52.2538 41.9254 67.7773 44.9915 82.5123 53.0455C79.9633 56.3775 77.4946 59.6065 74.9627 62.9185C65.1308 57.4987 54.6537 54.8502 43.5171 54.8759C32.4379 54.9017 21.9952 57.4872 12.2177 62.9214ZM23.5866 49.2101C23.8446 50.2855 23.9937 51.1807 24.2862 52.0273C24.4898 52.6136 24.894 53.1341 25.2066 53.6833C25.4102 53.1484 25.6137 52.6136 25.8517 51.9844C26.6689 51.93 27.0072 53.8177 28.3033 52.7566C27.9649 52.3476 27.6438 51.9615 27.3226 51.5754C27.4545 51.5411 27.5864 51.5039 27.7212 51.4696C27.552 50.6745 27.638 49.6477 27.1649 49.13C26.1126 47.9803 24.8912 48.9956 23.5894 49.2101H23.5866ZM32.3031 47.3425C30.8093 47.331 29.6853 48.3692 29.6796 49.7678C29.6738 51.1521 30.7118 52.2418 32.0737 52.2818C33.5246 52.3247 34.7231 51.2694 34.7747 49.9022C34.8292 48.4522 33.7683 47.3539 32.3031 47.3425ZM39.89 49.1958C38.6198 48.5323 38.4248 46.8448 36.6958 46.7933C36.7933 48.4407 36.8851 49.9737 36.9826 51.6269C38.9323 51.2751 37.4843 49.8365 38.118 49.1186C39.1961 49.5733 39.3395 51.3838 41.014 51.3266C41.014 50.8289 41.0369 50.4113 41.0082 49.9966C40.9452 49.0499 40.8935 48.1004 40.7559 47.1651C40.7244 46.9563 40.3488 46.799 40.1337 46.6188C39.9846 46.8648 39.7151 47.1079 39.7094 47.3568C39.695 47.9145 39.8097 48.4779 39.8871 49.1958H39.89ZM54.9892 47.3196C53.5182 47.3139 52.4487 48.3892 52.4803 49.8422C52.5089 51.1921 53.7247 52.2933 55.1526 52.2647C56.506 52.2361 57.5726 51.1464 57.5869 49.7735C57.6013 48.3778 56.4888 47.3282 54.992 47.3224L54.9892 47.3196ZM64.3021 51.1035C64.3021 49.7249 63.1523 48.6295 61.7044 48.6238C60.2994 48.6181 59.2299 49.7621 59.2672 51.2236C59.3016 52.5879 60.5116 53.689 61.928 53.6432C63.2556 53.6003 64.3021 52.4792 64.3021 51.1006V51.1035ZM66.0454 54.9246C66.1831 54.8931 66.3207 54.8616 66.4555 54.8302C66.7193 54.2925 66.9802 53.7519 67.244 53.2142L67.6397 53.1828C67.783 53.7147 67.849 54.2868 68.0927 54.7701C68.302 55.1877 68.7149 55.5023 69.036 55.8627C69.1851 55.794 69.3342 55.7254 69.4833 55.6568C68.4224 53.8292 69.6898 52.7051 70.722 51.5068C70.613 51.3752 70.5041 51.2436 70.398 51.1149C69.5177 51.5525 68.6403 51.9901 67.4389 52.5879C67.6196 51.9215 67.74 51.6955 67.7257 51.481C67.6999 51.0806 67.5938 50.6859 67.5221 50.2884C67.2268 50.5744 66.811 50.8089 66.659 51.1578C66.2834 52.0273 65.9795 52.9368 65.7587 53.8549C65.6842 54.1695 65.9394 54.5671 66.0454 54.9246ZM50.3327 49.6362C49.9427 49.805 49.5614 50.091 49.1628 50.1139C48.5349 50.1539 47.669 50.2369 47.3278 49.8908C47.0238 49.5819 47.0582 48.435 47.3794 48.1576C47.7578 47.8315 48.6123 47.9631 49.2402 48.0518C49.6589 48.1118 50.0402 48.4436 50.6853 48.7839C50.1234 47.0278 49.2775 46.4444 47.9471 46.5931C46.7141 46.7333 45.9142 47.6142 45.8511 48.8955C45.788 50.2197 46.4618 51.1979 47.6776 51.3923C48.9392 51.5954 50.0316 51.358 50.3355 49.6334L50.3327 49.6362ZM23.3113 54.4956C22.0612 53.0197 21.1723 51.9215 20.2232 50.8775C19.6412 50.2369 18.8871 50.2712 18.7838 51.1721C18.6175 52.6365 18.738 54.1323 18.738 55.6139C19.6985 53.8406 21.3157 54.0522 23.3084 54.4956H23.3113ZM17.2699 56.5234C17.3043 56.326 17.3416 56.1258 17.376 55.9285C16.3294 54.9589 15.2972 53.9693 14.2277 53.0226C13.5998 52.4649 12.969 52.6022 12.9059 53.443C12.7941 54.9246 12.8743 56.4233 12.8743 57.9134L13.2901 58.1794C14.1704 56.5834 15.4033 55.8112 17.267 56.5234H17.2699ZM71.3958 55.0047C71.3958 55.6253 71.2811 56.0343 71.4159 56.1515C72.0238 56.6807 72.6517 57.2927 73.3857 57.5301C73.7441 57.6474 74.7792 56.9867 74.7591 56.7321C74.7104 56.08 74.2774 55.4365 73.9334 54.8273C73.7441 54.4898 73.423 54.2267 73.1621 53.9293C73.2796 53.7948 73.3972 53.6604 73.5147 53.526C74.1427 53.9779 74.7706 54.4298 75.5075 54.9618C75.82 53.5374 75.0746 52.9368 74.1111 52.7423C73.5864 52.6365 72.709 52.8596 72.4252 53.2486C71.803 54.1066 72.408 54.8159 73.1305 55.4022C73.4087 55.6282 73.5807 55.9885 73.8015 56.286C73.6638 56.4204 73.5262 56.5548 73.3886 56.6892C72.7979 56.1916 72.2101 55.6911 71.3929 55.0018L71.3958 55.0047Z" fill="#C41230"/>
<path d="M31.7276 46.1071L8.21582 53.2574L11.7999 59.9786L18.108 57.8335L34.4516 53.2574L50.6518 53.8294L73.5901 59.9786L76.3141 56.2605C76.6963 54.9734 76.1133 51.6843 70.7228 48.8242C65.3323 45.9641 57.0077 45.8211 53.5191 46.1071H31.7276Z" fill="#C41230"/>
<path d="M16.5179 52.1264C16.9167 51.9202 17.2565 51.8544 17.5378 51.9293C17.823 52.002 18.0381 52.1782 18.1832 52.4573C18.3062 52.6944 18.3351 52.9104 18.2695 53.1054C18.2018 53.2962 18.0447 53.4549 17.7987 53.5822C17.7221 53.6217 17.6702 53.6405 17.6424 53.6388C17.6123 53.6328 17.5853 53.6065 17.561 53.5602C17.5392 53.5178 17.5062 53.4649 17.4626 53.4014C17.4231 53.3359 17.3743 53.2782 17.3158 53.2278C17.2573 53.1775 17.1897 53.1455 17.1125 53.1314C17.0331 53.1134 16.9448 53.1297 16.847 53.1801C16.7114 53.2501 16.6122 53.3551 16.5503 53.4947C16.486 53.6297 16.4877 53.763 16.556 53.8942C16.6153 54.0086 16.7062 54.0796 16.8284 54.1079C16.9548 54.1336 17.1002 54.1445 17.2648 54.1399C17.4271 54.1313 17.6011 54.119 17.7869 54.1036C17.9767 54.0861 18.1651 54.0962 18.3515 54.1339C18.5359 54.1677 18.711 54.2409 18.8774 54.3536C19.0457 54.46 19.1913 54.6316 19.3143 54.8687C19.411 55.0549 19.4706 55.2468 19.4927 55.445C19.5168 55.6363 19.499 55.8254 19.4399 56.0116C19.3826 56.1915 19.2782 56.3636 19.1265 56.5278C18.9794 56.6897 18.7827 56.8344 18.5364 56.9617C18.3242 57.0712 18.1149 57.1499 17.9082 57.1976C17.7058 57.2431 17.5191 57.2671 17.3482 57.2697C17.1793 57.2657 17.036 57.2431 16.9176 57.2022C16.7974 57.157 16.7197 57.1007 16.6844 57.0329C16.5394 56.7535 16.4499 56.5447 16.4158 56.4065C16.386 56.2664 16.4135 56.1743 16.4984 56.1305C16.5577 56.0997 16.6325 56.0934 16.7226 56.1114C16.8166 56.1271 16.9227 56.1446 17.0406 56.1643C17.1584 56.184 17.2857 56.1906 17.4225 56.1843C17.5633 56.176 17.7081 56.1334 17.8566 56.0568C17.9159 56.0259 17.971 55.9921 18.022 55.9552C18.0748 55.9117 18.1158 55.8663 18.145 55.8191C18.1786 55.7696 18.1969 55.717 18.2004 55.6615C18.2081 55.604 18.1967 55.5454 18.166 55.4862C18.1109 55.3803 18.0266 55.3166 17.9131 55.2948C17.7995 55.2728 17.6679 55.2685 17.5185 55.2811C17.3669 55.2897 17.2046 55.3037 17.0317 55.3234C16.8611 55.3363 16.6887 55.326 16.5153 55.2922C16.3392 55.2542 16.1703 55.1778 16.0086 55.0629C15.8466 54.9479 15.7018 54.7677 15.5742 54.5223C15.4314 54.2472 15.3615 53.988 15.3643 53.7449C15.3715 53.4998 15.4248 53.2762 15.5246 53.0742C15.6264 52.866 15.7658 52.6838 15.9432 52.528C16.1225 52.3655 16.314 52.2317 16.5179 52.1264Z" fill="white"/>
<path d="M22.6914 50.6347C23.1098 50.4714 23.4739 50.4774 23.7842 50.653C24.099 50.8269 24.3654 51.1913 24.5833 51.7461C24.7192 52.0922 24.8003 52.4165 24.8267 52.7186C24.8531 53.0206 24.8324 53.2949 24.7651 53.5411C24.696 53.7834 24.5847 53.9905 24.4319 54.1629C24.2791 54.3354 24.0912 54.4652 23.8687 54.5522C23.6331 54.6443 23.4283 54.6654 23.2546 54.6154C23.0811 54.5656 22.92 54.4624 22.7709 54.3054C22.8205 54.4704 22.8572 54.5968 22.8815 54.6846C22.9056 54.7724 22.9251 54.8416 22.9397 54.8922C22.9564 54.9472 22.9701 54.9955 22.9813 55.0373C22.9971 55.077 23.0137 55.1322 23.0309 55.2023C23.0527 55.2704 23.0817 55.3642 23.1181 55.4829C23.1545 55.6018 23.2038 55.7669 23.2663 55.9779C23.283 56.0329 23.2855 56.0729 23.2749 56.0975C23.264 56.1221 23.2296 56.1458 23.172 56.1684L22.9317 56.2625C22.7938 56.3163 22.6742 56.3452 22.573 56.3489C22.4778 56.3552 22.3932 56.3423 22.319 56.31C22.249 56.2757 22.1874 56.223 22.1337 56.1518C22.0861 56.0835 22.0426 55.9982 22.0024 55.8961C21.9849 55.8518 21.9445 55.7291 21.8811 55.5286C21.8178 55.3281 21.7418 55.089 21.6532 54.8116C21.5675 54.5276 21.4737 54.2238 21.3722 53.9001C21.275 53.5743 21.1818 53.2654 21.0923 52.9726C21.0014 52.6754 20.9189 52.4131 20.8449 52.186C20.7755 51.9572 20.7288 51.7988 20.7047 51.711C20.6706 51.6117 20.6591 51.5497 20.67 51.5251C20.678 51.5065 20.711 51.4859 20.7689 51.4633L21.0293 51.3615C21.2695 51.2676 21.4631 51.2508 21.6099 51.3111C21.7596 51.3652 21.8614 51.461 21.9153 51.5988C21.9376 51.3546 22.0113 51.1567 22.1366 51.0054C22.2662 50.8524 22.4512 50.7288 22.6914 50.6347ZM22.5521 51.7107C22.3253 51.7993 22.1968 51.9624 22.1667 52.1992C22.1366 52.4363 22.1879 52.7234 22.3204 53.0609C22.3657 53.1762 22.417 53.2869 22.4738 53.3924C22.5352 53.4965 22.6034 53.5849 22.6782 53.6581C22.7534 53.7313 22.8345 53.7814 22.9223 53.8086C23.0143 53.834 23.1138 53.8257 23.2205 53.784C23.412 53.7093 23.5353 53.5534 23.5912 53.3166C23.6471 53.0798 23.5964 52.7618 23.4395 52.3622C23.3959 52.2512 23.3452 52.1483 23.2873 52.053C23.2319 51.9518 23.1688 51.8691 23.0974 51.8048C23.0258 51.7407 22.9449 51.6981 22.8546 51.6769C22.7643 51.656 22.6633 51.6672 22.5521 51.7107Z" fill="white"/>
<path d="M28.2235 53.0685C27.9391 53.1514 27.7129 53.1354 27.5449 53.0207C27.3765 52.9057 27.2415 52.6746 27.1394 52.3269C27.1234 52.2719 27.1056 52.2027 27.0861 52.1189C27.0709 52.034 27.0494 51.9262 27.021 51.7952C26.9958 51.6587 26.9642 51.4914 26.9261 51.2941C26.888 51.0964 26.8381 50.8579 26.7758 50.5779C26.7182 50.2968 26.6465 49.9676 26.5608 49.5903C26.4794 49.2116 26.3807 48.7735 26.2649 48.2761C26.24 48.174 26.2339 48.1114 26.2468 48.0876C26.2566 48.0699 26.2913 48.0522 26.3509 48.035L26.6193 47.9566C26.7566 47.9163 26.8762 47.8989 26.9771 47.9043C27.0784 47.9094 27.1644 47.9315 27.2358 47.9704C27.3069 48.0093 27.3645 48.0619 27.4089 48.1282C27.452 48.1903 27.4849 48.2601 27.5079 48.3379C27.5345 48.4294 27.5666 48.5641 27.6039 48.742C27.6444 48.9139 27.6871 49.1101 27.7318 49.3303C27.7765 49.5508 27.8238 49.7802 27.874 50.019C27.9242 50.2576 27.9715 50.4872 28.0162 50.7075C28.0598 50.9234 28.0994 51.1179 28.1352 51.2912C28.1757 51.4631 28.2086 51.5927 28.2342 51.6796C28.2691 51.7983 28.3147 51.877 28.3706 51.9153C28.4314 51.9522 28.4902 51.9748 28.5473 51.9831C28.6032 51.9865 28.6531 51.9868 28.6969 51.9839C28.7442 51.9751 28.7712 51.9822 28.7778 52.0051C28.8073 52.1058 28.8254 52.2096 28.832 52.3171C28.8374 52.4198 28.8222 52.5211 28.7867 52.6209C28.75 52.7161 28.6863 52.8042 28.5954 52.8851C28.508 52.9604 28.3841 53.0216 28.2235 53.0685Z" fill="white"/>
<path d="M31.6511 52.1215C31.5063 52.1533 31.3841 52.1656 31.2846 52.1581C31.1889 52.145 31.1069 52.1167 31.0383 52.0732C30.9747 52.0286 30.9225 51.9694 30.8818 51.8953C30.8445 51.8155 30.8141 51.7223 30.7906 51.615C30.7751 51.5452 30.7559 51.4468 30.7327 51.3201C30.7132 51.188 30.6882 51.0078 30.6576 50.7804C30.6257 50.5482 30.5836 50.2573 30.5308 49.9075C30.4818 49.5523 30.4193 49.1144 30.3436 48.5942C30.3258 48.4909 30.3241 48.4277 30.3384 48.4051C30.3496 48.388 30.3852 48.3728 30.446 48.3594L30.7189 48.2996C30.8637 48.2675 30.9833 48.2561 31.0782 48.2644C31.1777 48.2718 31.2594 48.2979 31.3231 48.3425C31.3913 48.386 31.4435 48.4454 31.4796 48.5204C31.5206 48.5945 31.5519 48.6803 31.5734 48.7781C31.5889 48.8479 31.6072 48.9537 31.6287 49.0953C31.6502 49.2371 31.6783 49.431 31.713 49.677C31.7514 49.9175 31.7964 50.2201 31.8475 50.5848C31.8977 50.9446 31.9573 51.3808 32.0261 51.8927C32.0339 51.9496 32.0304 51.9894 32.0158 52.012C32.0012 52.0349 31.9636 52.0529 31.9031 52.0663L31.6511 52.1215ZM30.124 47.5663C30.083 47.3801 30.1182 47.2185 30.2298 47.0818C30.3416 46.9448 30.5119 46.8512 30.7404 46.8012C30.9411 46.7571 31.0951 46.7671 31.2023 46.8315C31.313 46.8901 31.3833 46.9868 31.4131 47.1218C31.4512 47.2943 31.4177 47.4527 31.3127 47.598C31.2115 47.7373 31.0372 47.8342 30.7897 47.8886C30.4115 47.9715 30.1899 47.8643 30.124 47.5663Z" fill="white"/>
<path d="M35.597 48.4001C35.6087 48.5814 35.6179 48.7607 35.6242 48.9381C35.6354 49.1145 35.6451 49.2819 35.6534 49.4394C35.662 49.5973 35.6704 49.738 35.6787 49.8622C35.6916 49.9854 35.703 50.0801 35.7125 50.1462C35.7303 50.2689 35.7567 50.3495 35.7911 50.3878C35.8249 50.4213 35.8751 50.4336 35.9413 50.4239C35.9932 50.4165 36.0368 50.4004 36.0718 50.3761C36.1071 50.3518 36.1394 50.3255 36.169 50.2972C36.1988 50.2689 36.224 50.2434 36.245 50.2211C36.2705 50.1982 36.3 50.1842 36.333 50.1796C36.3663 50.1748 36.3998 50.1891 36.4336 50.2228C36.4675 50.2566 36.4941 50.3418 36.5139 50.4785C36.5518 50.7379 36.5105 50.9536 36.3906 51.1249C36.2705 51.2962 36.0379 51.4069 35.6927 51.4567C35.3521 51.5059 35.0877 51.4647 34.8996 51.3328C34.7155 51.1955 34.6 50.9642 34.5527 50.6387C34.5424 50.568 34.5329 50.4851 34.524 50.3901C34.5191 50.2895 34.5123 50.1605 34.5039 50.0029C34.4956 49.845 34.4844 49.6517 34.4704 49.4223C34.4612 49.1926 34.4443 48.9083 34.4194 48.57L34.0435 48.6243C34.0056 48.6297 33.9809 48.626 33.9692 48.6132C33.9617 48.5951 33.9557 48.5694 33.9508 48.5365L33.9199 48.1724C33.9156 48.1104 33.9141 48.0506 33.9156 47.9925C33.9207 47.929 33.9365 47.8715 33.9629 47.8195C33.9939 47.7669 34.0403 47.7217 34.1025 47.6836C34.1647 47.6459 34.2502 47.619 34.3589 47.6035C34.3795 47.5137 34.4027 47.4068 34.4282 47.2826C34.4538 47.1588 34.4799 47.0393 34.5065 46.9246C34.5329 46.8053 34.5593 46.7052 34.5862 46.6243C34.6178 46.5425 34.6502 46.4993 34.6834 46.4947L34.889 46.4649C35.0877 46.4363 35.2337 46.4778 35.3271 46.5896C35.4206 46.7012 35.4797 46.8422 35.5043 47.0118C35.5181 47.1062 35.531 47.2463 35.5436 47.4325L36.2885 47.325C36.3642 47.3141 36.4067 47.3416 36.4164 47.4076L36.4434 47.794C36.4546 47.9367 36.4311 48.0583 36.3731 48.1581C36.3192 48.2525 36.1859 48.3151 35.9729 48.3457L35.597 48.4001Z" fill="white"/>
<path d="M44.1099 45.7708C44.2292 45.772 44.3269 45.7965 44.4032 45.8446C44.4841 45.8884 44.5503 45.9484 44.6025 46.0251C44.6544 46.0969 44.6968 46.1807 44.7295 46.2762C44.7622 46.372 44.79 46.4698 44.8132 46.5702C44.9982 47.3439 45.151 47.9814 45.2711 48.483C45.3916 48.9844 45.4865 49.3903 45.5556 49.7006C45.625 50.0063 45.6734 50.2331 45.7007 50.381C45.7282 50.5292 45.7419 50.6318 45.7414 50.689C45.7408 50.7557 45.7239 50.8009 45.69 50.8243C45.6614 50.8481 45.6135 50.8595 45.5464 50.8589L45.1808 50.8561C44.9755 50.8546 44.8106 50.8295 44.6868 50.7808C44.5678 50.7274 44.4752 50.6527 44.4092 50.5569C44.3476 50.4611 44.3031 50.3464 44.2756 50.2125C44.2481 50.0741 44.2254 49.9191 44.2077 49.7475L42.9604 49.7375L42.7161 50.7225C42.6914 50.7986 42.6364 50.8363 42.5504 50.8355L42.1704 50.8326C42.0939 50.832 42.015 50.8243 41.9339 50.8094C41.853 50.7897 41.7791 50.7605 41.7125 50.7216C41.6506 50.683 41.5984 50.635 41.556 50.5775C41.5133 50.5151 41.4923 50.4411 41.4932 50.3553C41.494 50.2506 41.5287 50.0793 41.5976 49.8413C41.6664 49.6036 41.7521 49.3348 41.8548 49.0353C41.9623 48.731 42.0796 48.415 42.2063 48.0872C42.3379 47.7546 42.4646 47.4408 42.5865 47.1462C42.7083 46.8516 42.8179 46.5928 42.9151 46.3694C43.0172 46.1461 43.0949 45.9893 43.1482 45.8992C43.1869 45.8329 43.2207 45.7951 43.2494 45.7857C43.283 45.7717 43.3429 45.7651 43.4289 45.7657L44.1099 45.7708ZM43.2265 48.703L44.0508 48.7093L43.7647 46.8193L43.2265 48.703Z" fill="white"/>
<path d="M53.0775 50.6719C53.2705 50.706 53.4379 50.7065 53.5796 50.6734C53.7261 50.641 53.8525 50.5981 53.9592 50.5441C54.0659 50.4903 54.1593 50.4414 54.2399 50.3977C54.3254 50.3548 54.4056 50.3399 54.4808 50.353C54.5748 50.3696 54.6095 50.4483 54.5846 50.5893C54.5714 50.6642 54.5456 50.754 54.5077 50.8587C54.4704 50.9588 54.4237 51.0715 54.3675 51.1971C54.3345 51.2737 54.2723 51.3521 54.1803 51.4327C54.0931 51.5142 53.9784 51.586 53.8365 51.6481C53.6951 51.7053 53.5254 51.7456 53.3273 51.7688C53.1346 51.7879 52.9181 51.7765 52.6781 51.7342C52.4381 51.6918 52.2044 51.6143 51.977 51.5017C51.7494 51.389 51.5564 51.2314 51.3981 51.0292C51.2399 50.827 51.1275 50.5724 51.0604 50.2652C50.9936 49.9583 50.9984 49.5888 51.075 49.1569C51.1025 49.0019 51.1435 48.8255 51.198 48.6267C51.2582 48.4245 51.3379 48.2206 51.4374 48.0155C51.5369 47.8104 51.6591 47.6142 51.8039 47.4266C51.9544 47.2353 52.131 47.0728 52.3343 46.9392C52.5376 46.8057 52.7727 46.7116 53.0394 46.6569C53.3118 46.5986 53.6223 46.6 53.9704 46.6615C54.2482 46.7104 54.4822 46.7856 54.6729 46.8872C54.8684 46.9893 55.0215 47.1105 55.1325 47.2513C55.2489 47.388 55.324 47.5393 55.3579 47.7049C55.3963 47.8713 55.4 48.0415 55.3693 48.2151C55.316 48.5157 55.1875 48.7205 54.9837 48.8298C54.7856 48.9353 54.5241 48.9593 54.1995 48.9021C54.0957 48.8838 54.0312 48.8649 54.0054 48.8461C53.9853 48.8232 53.9799 48.7857 53.9887 48.7342C54.0125 48.5738 54.0323 48.4345 54.0484 48.3164C54.0644 48.198 54.065 48.099 54.0501 48.0189C54.036 47.934 54.0014 47.8699 53.946 47.8261C53.8961 47.7787 53.8196 47.7458 53.7161 47.7275C53.5655 47.7009 53.4302 47.7112 53.3103 47.7578C53.1959 47.8004 53.0918 47.8668 52.9984 47.9568C52.9103 48.0429 52.8315 48.1453 52.7621 48.2637C52.6973 48.383 52.6391 48.5057 52.5875 48.6321C52.5408 48.7594 52.5018 48.8832 52.4708 49.0036C52.4444 49.1249 52.4232 49.2302 52.4074 49.3194C52.3309 49.7513 52.3469 50.071 52.4556 50.279C52.5691 50.4877 52.7764 50.6187 53.0775 50.6719Z" fill="white"/>
<path d="M59.0276 52.2548C59.0855 52.1078 59.1454 51.954 59.2076 51.7932C59.2741 51.6339 59.3344 51.4803 59.3877 51.3319C59.4459 51.1849 59.4969 51.0533 59.5411 50.9372C59.585 50.8208 59.6151 50.7353 59.6314 50.6804C59.6661 50.5614 59.6673 50.4476 59.6346 50.3386C59.6076 50.2265 59.5116 50.1461 59.3464 50.0981C59.1265 50.0337 58.9172 50.0846 58.7193 50.2502C58.5258 50.4172 58.3675 50.6689 58.2436 51.0053C58.2064 51.0988 58.1553 51.2304 58.0905 51.4003C58.0272 51.5656 57.9624 51.7355 57.8964 51.9096C57.8316 52.0795 57.7714 52.2334 57.7161 52.3713C57.6667 52.5057 57.6372 52.5892 57.6277 52.6209C57.6117 52.6759 57.5896 52.7093 57.5612 52.7208C57.5374 52.7339 57.4959 52.7316 57.4362 52.7142L57.1885 52.6418C57.0463 52.6004 56.9336 52.5526 56.8499 52.4982C56.7722 52.4408 56.7137 52.3767 56.6747 52.3055C56.6405 52.236 56.623 52.159 56.623 52.0744C56.6288 51.9869 56.6471 51.8902 56.6781 51.7849C56.7076 51.6845 56.7555 51.547 56.8215 51.3725C56.8937 51.1949 56.9898 50.9521 57.1099 50.6446C57.2312 50.3323 57.3829 49.9345 57.5644 49.4511C57.7462 48.9677 57.9649 48.3663 58.221 47.6461C58.2551 47.5468 58.2841 47.4908 58.3079 47.4779C58.3256 47.4682 58.3644 47.4719 58.424 47.4894L58.6921 47.5677C58.8297 47.6078 58.9398 47.6572 59.0221 47.7162C59.1044 47.7748 59.1652 47.8397 59.2039 47.9107C59.2429 47.9819 59.2633 48.0571 59.2647 48.1372C59.2673 48.2124 59.2572 48.289 59.2346 48.3668C59.2105 48.4489 59.1563 48.5996 59.072 48.8184C58.9926 49.0387 58.8971 49.2964 58.7856 49.5915C58.9903 49.403 59.1878 49.2892 59.3785 49.2506C59.5738 49.2131 59.7997 49.232 60.0566 49.307C60.2493 49.3633 60.4105 49.4328 60.5406 49.5155C60.6708 49.5981 60.7669 49.7031 60.8291 49.8306C60.8973 49.9548 60.9309 50.1035 60.9297 50.2771C60.93 50.4461 60.8959 50.6472 60.8274 50.8806C60.8059 50.9538 60.762 51.0774 60.696 51.2518C60.6298 51.4263 60.5518 51.6245 60.4618 51.8464C60.3763 52.0701 60.2852 52.304 60.1885 52.5492C60.0976 52.7908 60.0151 53.0125 59.9408 53.2144C59.9216 53.2633 59.9055 53.3008 59.8929 53.3271C59.8803 53.3531 59.8651 53.3711 59.8473 53.3809C59.8341 53.3917 59.8155 53.3963 59.7911 53.394C59.7668 53.392 59.7341 53.3849 59.6928 53.3729L59.4726 53.3085C59.3258 53.2659 59.2105 53.2173 59.1271 53.1629C59.0433 53.1089 58.9837 53.0491 58.9478 52.9842C58.9123 52.919 58.8937 52.8466 58.8922 52.7665C58.8965 52.6836 58.9129 52.5941 58.9413 52.498C58.9547 52.4522 58.9674 52.4087 58.9794 52.3675C58.996 52.3275 59.0121 52.29 59.0276 52.2548Z" fill="white"/>
<path d="M63.6285 54.8955C63.4338 54.816 63.2492 54.7122 63.0745 54.5841C62.9045 54.4577 62.7666 54.3035 62.6608 54.121C62.5593 53.9406 62.5008 53.7312 62.485 53.4927C62.4695 53.2544 62.5232 52.9856 62.6465 52.6856C62.6918 52.5754 62.7551 52.4467 62.8363 52.2994C62.9174 52.1524 63.0158 52.0071 63.1316 51.8638C63.2517 51.7223 63.3888 51.5904 63.5425 51.4677C63.7022 51.3425 63.8814 51.2458 64.0801 51.1777C64.2785 51.1094 64.4979 51.0782 64.7384 51.0836C64.979 51.0893 65.2428 51.1508 65.5301 51.2684C65.76 51.3625 65.9438 51.4686 66.0812 51.5867C66.2185 51.7045 66.3169 51.8298 66.3762 51.9622C66.437 52.0904 66.4651 52.2228 66.4605 52.3601C66.4557 52.4974 66.4253 52.6341 66.3691 52.7708C66.2856 52.9739 66.1729 53.1286 66.031 53.2353C65.8934 53.3439 65.7383 53.4195 65.5656 53.4624C65.3993 53.5024 65.2259 53.5164 65.0449 53.5044C64.864 53.4921 64.6897 53.4698 64.5222 53.4375C64.3568 53.4006 64.2057 53.3594 64.0695 53.3139C63.9393 53.2659 63.839 53.2275 63.7681 53.1984C63.7337 53.2822 63.7105 53.3705 63.6982 53.4635C63.6919 53.5536 63.7005 53.6397 63.7237 53.7212C63.7469 53.803 63.7902 53.8799 63.8536 53.952C63.917 54.0244 64.0058 54.0841 64.1208 54.131C64.2358 54.1779 64.3316 54.1965 64.4078 54.1865C64.4907 54.1739 64.5609 54.1539 64.6189 54.1262C64.6785 54.0939 64.729 54.0655 64.77 54.041C64.8173 54.0141 64.8652 54.0103 64.9139 54.0304C64.936 54.0395 64.9707 54.0613 65.0183 54.0964C65.0722 54.1288 65.1206 54.1742 65.1637 54.2329C65.2067 54.2918 65.2376 54.361 65.2563 54.4411C65.2752 54.5209 65.2646 54.6093 65.2247 54.7062C65.1723 54.8341 65.0871 54.9282 64.9692 54.9882C64.8517 55.0483 64.7169 55.0806 64.5652 55.0855C64.4179 55.0923 64.2613 55.0772 64.0956 55.0403C63.9301 55.0037 63.7742 54.9553 63.6285 54.8955ZM64.9429 52.056C64.8457 52.0163 64.7499 52.0106 64.6556 52.0392C64.5675 52.0649 64.4818 52.1098 64.3989 52.1736C64.3201 52.2394 64.2467 52.3175 64.1784 52.4081C64.1148 52.5005 64.0572 52.5903 64.0058 52.6775C64.2817 52.7851 64.5217 52.8291 64.7261 52.8097C64.9348 52.7922 65.0728 52.7016 65.1399 52.5385C65.176 52.4502 65.18 52.3592 65.1516 52.2651C65.1275 52.1727 65.0579 52.1032 64.9429 52.056Z" fill="white"/>
<path d="M69.4911 54.8152C69.4163 54.9373 69.3334 55.0688 69.2431 55.2098C69.1525 55.3511 69.061 55.4941 68.9684 55.6397C68.8781 55.7807 68.7887 55.9197 68.7006 56.0564C68.6166 56.1957 68.5415 56.3178 68.4753 56.4231C68.4093 56.5284 68.3531 56.6147 68.3067 56.6822C68.2648 56.7517 68.2427 56.7886 68.2404 56.7926C68.2097 56.8412 68.1814 56.8696 68.1556 56.8776C68.1298 56.8856 68.0893 56.875 68.0343 56.8464L67.8058 56.7268C67.5772 56.607 67.4442 56.4703 67.4066 56.3158C67.3754 56.1597 67.4164 55.9738 67.5296 55.7587C67.5431 55.7332 67.5784 55.6712 67.636 55.5719C67.6977 55.4753 67.7696 55.3591 67.8513 55.2244C67.9394 55.0874 68.0354 54.9359 68.1392 54.7694C68.2427 54.6029 68.3465 54.4365 68.4503 54.2703L68.1518 54.1141C68.1054 54.0898 68.0942 54.0544 68.1189 54.0078C68.1366 53.974 68.1642 53.9265 68.2017 53.8656C68.2416 53.8001 68.28 53.7369 68.3176 53.676C68.3485 53.6274 68.3815 53.5802 68.4168 53.5338C68.4581 53.4858 68.5016 53.4492 68.5469 53.4246C68.5988 53.3977 68.6591 53.3862 68.7273 53.3897C68.7978 53.3888 68.8787 53.4097 68.9696 53.452L69.1284 53.2121C69.2982 52.9509 69.4699 52.7473 69.6437 52.6017C69.8217 52.4579 70.0032 52.3643 70.1879 52.3212C70.3749 52.2737 70.5672 52.272 70.7651 52.3166C70.9695 52.3589 71.1797 52.4364 71.3953 52.5494C71.6069 52.6601 71.777 52.7733 71.9048 52.8889C72.0373 53.0064 72.1322 53.1234 72.1898 53.2398C72.2475 53.3559 72.273 53.4718 72.2664 53.5867C72.2598 53.7017 72.2288 53.8118 72.1732 53.9174C72.0579 54.137 71.906 54.2566 71.7173 54.2763C71.5332 54.2983 71.3248 54.2486 71.092 54.1267C71.0283 54.0936 70.9862 54.0661 70.9652 54.0444C70.9509 54.0206 70.9535 53.9897 70.9735 53.9517C71.0467 53.8124 71.092 53.696 71.1086 53.6025C71.1255 53.5089 71.0768 53.4323 70.9624 53.3725C70.8778 53.3282 70.7926 53.3159 70.7066 53.3356C70.6209 53.3551 70.5366 53.3974 70.454 53.4618C70.3737 53.5221 70.2954 53.5993 70.2186 53.6937C70.1463 53.7904 70.0749 53.8905 70.0044 53.9934L70.7344 54.3756C70.8021 54.411 70.8204 54.4582 70.7892 54.5174L70.5842 54.846C70.509 54.9682 70.4187 55.0528 70.3129 55.0997C70.2137 55.1446 70.0689 55.1175 69.8785 55.0176L69.4911 54.8152Z" fill="white"/>
<path d="M28.2825 37.2846C28.3828 34.3528 28.4603 31.3594 28.6122 28.3694C28.6446 27.7113 28.3989 27.4436 27.8492 27.2757C25.3042 26.5049 23.3092 24.9696 21.8087 22.8151C21.0942 21.7861 20.5282 20.6603 20.2954 19.4025C20.1336 18.5284 19.875 17.6575 19.8332 16.7768C19.7942 15.9737 19.9008 15.1383 20.1015 14.3577C20.4247 13.103 20.8224 11.8612 21.5306 10.7516C22.3392 9.48397 23.335 8.38406 24.5476 7.4938C26.1191 6.34229 27.8137 5.49399 29.7893 5.23272C30.5783 5.1295 31.319 5.07144 32.0948 5.26498C32.5573 5.3811 32.9453 5.32304 33.343 4.85856C34.8695 3.07486 36.7806 1.76531 38.9632 0.929905C41.1492 0.094471 43.4642 -0.160335 45.7862 0.0944706C48.5898 0.404133 51.222 1.29114 53.453 3.0813C54.2324 3.70383 54.8792 4.48764 55.6098 5.17143C55.7297 5.28434 55.972 5.30368 56.1563 5.30368C56.8579 5.30368 57.5599 5.25208 58.2583 5.27145C60.3472 5.32951 62.1581 6.15845 63.8427 7.31965C64.9388 8.0744 65.8443 9.02269 66.5913 10.1162C67.3835 11.2741 67.862 12.5676 68.2632 13.9094C68.7093 15.406 68.5574 16.9188 68.4831 18.4186C68.4441 19.2217 68.0917 20.0217 67.8136 20.7959C67.0471 22.9278 65.6697 24.6084 63.8395 25.9115C62.9988 26.5081 62.1062 27.0567 61.0585 27.2469C60.7093 27.3115 60.5347 27.4694 60.5444 27.8435C60.6479 31.5176 60.7417 35.1913 60.8418 38.862C60.8483 39.0974 60.871 39.3425 60.9487 39.565C61.2105 40.3166 61.0456 40.8006 60.6253 41.2553C60.153 41.765 59.5162 41.5811 58.9439 41.4358C57.6826 41.1166 56.4376 40.7328 55.1766 40.423C54.0609 40.149 52.9292 39.9425 51.8072 39.7071C51.7295 39.6908 51.6552 39.6522 51.5775 39.6457C50.5103 39.5393 49.4466 39.3908 48.3762 39.3456C46.1257 39.2458 43.8654 39.0716 41.6211 39.1683C39.5031 39.2618 37.3787 39.5553 35.2962 39.9651C33.5308 40.3135 31.8265 40.9584 30.0932 41.4618C29.2622 41.7035 28.1856 41.4618 28.2727 40.2231C28.3407 39.2684 28.2856 38.3071 28.2856 37.2815L28.2825 37.2846ZM42.5106 36.7976C42.5106 36.8202 42.5137 36.8428 42.5169 36.8622C43.3771 36.8622 44.2404 36.8525 45.1006 36.8685C45.4596 36.8751 45.6987 36.833 45.7764 36.3977C45.9186 35.6041 46.1159 34.8204 46.3163 34.0399C46.5429 33.1624 46.8081 32.2981 47.0375 31.4206C47.2703 30.524 47.4707 29.6207 47.7004 28.7241C47.9398 27.7951 48.2082 26.8728 48.4507 25.9438C48.6672 25.1052 48.8547 24.2601 49.0747 23.4246C49.3981 22.2054 49.7442 20.9927 50.0673 19.7734C50.2938 18.9154 50.488 18.0476 50.7142 17.1865C50.9631 16.2382 51.238 15.2931 51.4904 14.348C51.6068 13.9126 51.6908 13.4675 51.8135 13.0352C52.1467 11.8644 52.5022 10.6967 52.8257 9.52267C53.0585 8.68403 53.1686 7.80023 53.4983 7.00352C53.728 6.45198 53.5792 6.17458 53.2234 5.81978C50.9923 3.60384 48.2145 2.58459 45.1717 2.24912C43.3771 2.05238 41.5953 2.45233 39.93 3.09743C37.7927 3.9264 35.9752 5.24885 34.5558 7.08741C34.284 7.43897 33.9187 7.80669 33.3464 7.63895C31.862 7.20353 30.3521 7.34544 28.9325 7.78733C27.8524 8.12279 26.8015 8.71629 25.8897 9.39688C23.6518 11.0709 22.3747 13.3384 22.1935 16.1575C22.1029 17.5863 22.3908 18.9637 23.0052 20.2508C24.3569 23.0731 26.5558 24.7986 29.6728 25.3889C30.7885 25.6017 31.06 25.6664 30.9924 26.8759C30.96 27.4276 30.8338 27.9725 30.8112 28.5242C30.6818 31.7915 30.5783 35.0624 30.449 38.3329C30.4295 38.8425 30.6592 38.9329 31.0666 38.8231C31.7717 38.636 32.4636 38.4007 33.1684 38.2296C34.627 37.8781 36.0755 37.4717 37.5533 37.2492C39.1894 37.0041 40.8516 36.9363 42.504 36.7944L42.5106 36.7976ZM58.297 31.5078C58.3131 31.5078 58.3294 31.5078 58.3455 31.5078C58.3455 29.7111 58.3521 27.9113 58.3423 26.1148C58.3423 25.6406 58.5104 25.4115 59.015 25.318C59.7522 25.1859 60.5218 25.0472 61.1815 24.7214C63.4516 23.6054 65.0779 21.9151 65.8572 19.4282C66.3487 17.8543 66.5299 16.3414 66.1288 14.7093C65.6924 12.9191 64.8709 11.3644 63.5743 10.1162C61.4886 8.10666 58.9244 7.27769 56.0336 7.48413C55.875 7.49703 55.6325 7.66154 55.5938 7.80346C55.3609 8.6163 55.1766 9.44201 54.9824 10.2613C54.7886 11.087 54.6269 11.9192 54.407 12.7385C54.0804 13.9513 53.6988 15.1512 53.3788 16.3672C53.0553 17.5863 52.7933 18.8219 52.4733 20.0443C52.153 21.2635 51.7814 22.4699 51.4643 23.6892C51.1443 24.9276 50.8822 26.1823 50.5622 27.4242C50.2325 28.6952 49.8477 29.9531 49.5114 31.2238C49.0457 32.9753 48.5961 34.7332 48.1692 36.4944C48.1402 36.6137 48.3309 36.904 48.4473 36.9234C49.7634 37.1233 51.0861 37.2781 52.4053 37.462C53.1296 37.5621 53.8542 37.6716 54.5655 37.8266C55.7618 38.0878 56.9454 38.3975 58.1419 38.6489C58.2357 38.6684 58.5006 38.4007 58.4975 38.2717C58.449 36.0171 58.3713 33.7624 58.3002 31.5078H58.297ZM58.2486 5.72623C58.2454 5.69397 58.2388 5.66171 58.2357 5.6327H56.9649C56.9649 5.66494 56.9649 5.6972 56.9649 5.72623H58.2486Z" fill="#FFA12E"/>
</svg>
