<svg width="60" height="60" viewBox="0 0 60 60" fill="none" xmlns="http://www.w3.org/2000/svg">
<g opacity="0.5">
<path d="M14.04 52.4998C12.8883 52.4998 11.9275 52.1148 11.1575 51.3448C10.3875 50.5748 10.0017 49.614 10 48.4623V16.5373C10 15.3873 10.3858 14.4273 11.1575 13.6573C11.9292 12.8873 12.89 12.5015 14.04 12.4998H18.4625V6.9248H21.155V12.4998H39.04V6.9248H41.54V12.4998H45.9625C47.1125 12.4998 48.0733 12.8856 48.845 13.6573C49.6167 14.429 50.0017 15.3898 50 16.5398V28.4173C50 28.774 49.8808 29.0715 49.6425 29.3098C49.4042 29.5481 49.1067 29.6673 48.75 29.6673C48.3933 29.6673 48.0958 29.5481 47.8575 29.3098C47.6192 29.0715 47.5 28.774 47.5 28.4173V26.5373H12.5V48.4623C12.5 48.8456 12.66 49.1981 12.98 49.5198C13.3 49.8415 13.6525 50.0015 14.0375 49.9998H30.125C30.4817 49.9998 30.7792 50.119 31.0175 50.3573C31.2558 50.5956 31.375 50.8931 31.375 51.2498C31.375 51.6065 31.2558 51.904 31.0175 52.1423C30.7792 52.3806 30.4817 52.4998 30.125 52.4998H14.04ZM45.9625 54.9998C43.1775 54.9998 40.8142 54.0298 38.8725 52.0898C36.9325 50.1465 35.9625 47.7831 35.9625 44.9998C35.9625 42.2165 36.9325 39.854 38.8725 37.9123C40.8125 35.9706 43.175 34.9998 45.96 34.9998C48.745 34.9998 51.1083 35.9706 53.05 37.9123C54.9917 39.854 55.9625 42.2165 55.9625 44.9998C55.9625 47.7831 54.9917 50.1465 53.05 52.0898C51.1083 54.0331 48.7458 55.0031 45.9625 54.9998ZM50.1 50.5048L51.465 49.1398L46.9225 44.5948V37.7898H45V45.4048L50.1 50.5048Z" fill="#333333"/>
</g>
</svg>
