<svg width="50" height="50" viewBox="0 0 50 50" fill="none" xmlns="http://www.w3.org/2000/svg">
<g opacity="0.5">
<path d="M25.0007 26.042C23.0668 26.042 21.2121 26.8102 19.8447 28.1777C18.4772 29.5451 17.709 31.3998 17.709 33.3337C17.709 35.2675 18.4772 37.1222 19.8447 38.4896C21.2121 39.8571 23.0668 40.6253 25.0007 40.6253C26.9345 40.6253 28.7892 39.8571 30.1566 38.4896C31.5241 37.1222 32.2923 35.2675 32.2923 33.3337C32.2923 31.3998 31.5241 29.5451 30.1566 28.1777C28.7892 26.8102 26.9345 26.042 25.0007 26.042ZM21.8757 33.3337C21.8757 32.5049 22.2049 31.71 22.7909 31.124C23.377 30.5379 24.1719 30.2087 25.0007 30.2087C25.8295 30.2087 26.6243 30.5379 27.2104 31.124C27.7964 31.71 28.1257 32.5049 28.1257 33.3337C28.1257 34.1625 27.7964 34.9573 27.2104 35.5434C26.6243 36.1294 25.8295 36.4587 25.0007 36.4587C24.1719 36.4587 23.377 36.1294 22.7909 35.5434C22.2049 34.9573 21.8757 34.1625 21.8757 33.3337Z" fill="#333333"/>
<path d="M36.5125 10.6585L29.8896 1.37305L5.5375 20.8272L4.1875 20.8126V20.8335H3.125V45.8335H46.875V20.8335H44.8708L40.8833 9.16888L36.5125 10.6585ZM40.4687 20.8335H19.5771L35.1375 15.5293L38.3083 14.5147L40.4687 20.8335ZM32.3958 12.0626L16.3333 17.5376L29.0542 7.37513L32.3958 12.0626ZM7.29167 37.8522V28.8105C8.1712 28.5001 8.9701 27.9968 9.6298 27.3375C10.2895 26.6781 10.7933 25.8795 11.1042 25.0001H38.8958C39.2065 25.8799 39.7101 26.6789 40.3698 27.3386C41.0295 27.9984 41.8286 28.502 42.7083 28.8126V37.8543C41.8286 38.1649 41.0295 38.6686 40.3698 39.3283C39.7101 39.988 39.2065 40.7871 38.8958 41.6668H11.1083C10.7962 40.787 10.2916 39.9879 9.63129 39.328C8.97099 38.668 8.17167 38.1639 7.29167 37.8522Z" fill="#333333"/>
</g>
</svg>
