<svg width="20" height="20" viewBox="0 0 20 20" fill="none" xmlns="http://www.w3.org/2000/svg">
<path d="M20 9.96976C20 10.7214 19.3907 11.3306 18.6391 11.3306H11.4911V18.488C11.4911 19.3231 10.8142 20 9.97914 20C9.14409 20 8.46715 19.3231 8.46715 18.488V11.3306H1.36089C0.60929 11.3306 0 10.7214 0 9.96976C0 9.21816 0.60929 8.60887 1.36089 8.60887H8.46715V1.51199C8.46715 0.676942 9.14409 0 9.97914 0C10.8142 0 11.4911 0.676941 11.4911 1.51199V8.60887H18.6391C19.3907 8.60887 20 9.21816 20 9.96976Z" fill="#FFF8E7"/>
</svg>
