<svg width="19" height="22" viewBox="0 0 19 22" fill="none" xmlns="http://www.w3.org/2000/svg">
<g clip-path="url(#clip0_774_126)">
<path d="M4.07143 1.375V2.75H2.03571C0.91183 2.75 0 3.67383 0 4.8125V6.875H19V4.8125C19 3.67383 18.0882 2.75 16.9643 2.75H14.9286V1.375C14.9286 0.614453 14.3221 0 13.5714 0C12.8208 0 12.2143 0.614453 12.2143 1.375V2.75H6.78571V1.375C6.78571 0.614453 6.17924 0 5.42857 0C4.6779 0 4.07143 0.614453 4.07143 1.375ZM19 8.25H0V19.9375C0 21.0762 0.91183 22 2.03571 22H16.9643C18.0882 22 19 21.0762 19 19.9375V8.25Z" fill="#333333"/>
</g>
<defs>
<clipPath id="clip0_774_126">
<rect width="19" height="22" fill="white"/>
</clipPath>
</defs>
</svg>
