<svg width="22" height="22" viewBox="0 0 22 22" fill="none" xmlns="http://www.w3.org/2000/svg">
<g opacity="0.8">
<path fill-rule="evenodd" clip-rule="evenodd" d="M10.3228 20.2894C10.3228 20.2894 3.66602 14.6831 3.66602 9.16659C3.66602 7.22166 4.43863 5.3564 5.8139 3.98114C7.18917 2.60587 9.05443 1.83325 10.9993 1.83325C12.9443 1.83325 14.8095 2.60587 16.1848 3.98114C17.5601 5.3564 18.3327 7.22166 18.3327 9.16659C18.3327 14.6831 11.6758 20.2894 11.6758 20.2894C11.3055 20.6304 10.6959 20.6268 10.3228 20.2894ZM10.9993 12.3749C11.4207 12.3749 11.8379 12.2919 12.2271 12.1307C12.6164 11.9695 12.9701 11.7331 13.268 11.4352C13.5659 11.1373 13.8022 10.7836 13.9635 10.3944C14.1247 10.0051 14.2077 9.58791 14.2077 9.16659C14.2077 8.74526 14.1247 8.32806 13.9635 7.93881C13.8022 7.54956 13.5659 7.19587 13.268 6.89795C12.9701 6.60003 12.6164 6.36371 12.2271 6.20247C11.8379 6.04124 11.4207 5.95825 10.9993 5.95825C10.1484 5.95825 9.33239 6.29627 8.73071 6.89795C8.12904 7.49963 7.79102 8.31568 7.79102 9.16659C7.79102 10.0175 8.12904 10.8335 8.73071 11.4352C9.33239 12.0369 10.1484 12.3749 10.9993 12.3749Z" fill="#333333"/>
</g>
</svg>
