<svg width="30" height="29" viewBox="0 0 30 29" fill="none" xmlns="http://www.w3.org/2000/svg">
<path d="M14.0488 2.16309C14.3295 1.29939 15.4928 1.24531 15.8838 2.00098L15.9512 2.16309L18.0898 8.74707C18.4915 9.98302 19.6438 10.8193 20.9434 10.8193H27.8662C28.7741 10.8197 29.1847 11.9094 28.5869 12.5146L28.4531 12.6289L22.8535 16.6973C21.8678 17.4134 21.4196 18.6484 21.6982 19.8184L21.7637 20.0518L23.9023 26.6357C24.1826 27.4992 23.274 28.2261 22.5137 27.8447L22.3633 27.7529L16.7637 23.6846C15.7779 22.9683 14.4642 22.923 13.4375 23.5498L13.2363 23.6846L7.63672 27.7529C6.90193 28.2868 5.92851 27.647 6.05664 26.8057L6.09766 26.6357L8.23633 20.0518C8.61283 18.893 8.25003 17.6304 7.33691 16.8477L7.14648 16.6973L1.54688 12.6289C0.763284 12.0596 1.16539 10.8197 2.13379 10.8193H9.05664C10.2751 10.8193 11.364 10.0842 11.8262 8.97363L11.9102 8.74707L14.0488 2.16309Z" stroke="#FFA12E" stroke-width="2"/>
</svg>
