<svg width="40" height="40" viewBox="0 0 40 40" fill="none" xmlns="http://www.w3.org/2000/svg">
<g opacity="0.3">
<path d="M9.9974 33.3334C9.08073 33.3334 8.29628 33.0073 7.64406 32.355C6.99184 31.7028 6.66517 30.9178 6.66406 30V26.6667C6.66406 26.1945 6.82406 25.7989 7.14406 25.48C7.46406 25.1611 7.85962 25.0011 8.33073 25C8.80184 24.9989 9.19795 25.1589 9.51906 25.48C9.84017 25.8011 9.99962 26.1967 9.9974 26.6667V30H29.9974V26.6667C29.9974 26.1945 30.1574 25.7989 30.4774 25.48C30.7974 25.1611 31.193 25.0011 31.6641 25C32.1352 24.9989 32.5313 25.1589 32.8524 25.48C33.1735 25.8011 33.333 26.1967 33.3307 26.6667V30C33.3307 30.9167 33.0046 31.7017 32.3524 32.355C31.7002 33.0084 30.9152 33.3345 29.9974 33.3334H9.9974ZM18.3307 13.0834L15.2057 16.2084C14.8724 16.5417 14.4768 16.7017 14.0191 16.6884C13.5613 16.675 13.1652 16.5011 12.8307 16.1667C12.5252 15.8334 12.3652 15.4445 12.3507 15C12.3363 14.5556 12.4963 14.1667 12.8307 13.8334L18.8307 7.83336C18.9974 7.66669 19.178 7.54891 19.3724 7.48003C19.5668 7.41114 19.7752 7.37614 19.9974 7.37503C20.2196 7.37391 20.428 7.40891 20.6224 7.48003C20.8168 7.55114 20.9974 7.66891 21.1641 7.83336L27.1641 13.8334C27.4974 14.1667 27.6574 14.5556 27.6441 15C27.6307 15.4445 27.4707 15.8334 27.1641 16.1667C26.8307 16.5 26.4352 16.6739 25.9774 16.6884C25.5196 16.7028 25.1235 16.5428 24.7891 16.2084L21.6641 13.0834V25C21.6641 25.4723 21.5041 25.8684 21.1841 26.1884C20.8641 26.5084 20.4685 26.6678 19.9974 26.6667C19.5263 26.6656 19.1307 26.5056 18.8107 26.1867C18.4907 25.8678 18.3307 25.4723 18.3307 25V13.0834Z" fill="#333333"/>
</g>
</svg>
