<svg width="21" height="24" viewBox="0 0 21 24" fill="none" xmlns="http://www.w3.org/2000/svg">
<path d="M3.92401 24C3.25701 24 2.68651 23.759 2.21251 23.2771C1.73851 22.7952 1.50101 22.2174 1.50001 21.5437V2.69372H0.75001C0.53701 2.69372 0.35901 2.62067 0.21601 2.47457C0.0730103 2.32847 0.00101027 2.14737 1.0274e-05 1.93126C-0.000989725 1.71516 0.0710103 1.53456 0.21601 1.38947C0.36101 1.24439 0.53901 1.17185 0.75001 1.17185H6C6 0.857324 6.115 0.583386 6.345 0.350032C6.575 0.116677 6.845 0 7.155 0H13.845C14.155 0 14.425 0.116677 14.655 0.350032C14.885 0.583386 15 0.857324 15 1.17185H20.25C20.463 1.17185 20.641 1.2449 20.784 1.391C20.927 1.5371 20.999 1.7182 21 1.93431C21.001 2.15041 20.929 2.33101 20.784 2.47609C20.639 2.62118 20.461 2.69372 20.25 2.69372H19.5V21.5422C19.5 22.2179 19.2625 22.7962 18.7875 23.2771C18.3125 23.758 17.7425 23.999 17.0775 24H3.92401ZM18 2.69372H3.00001V21.5422C3.00001 21.8151 3.08651 22.0393 3.25951 22.2148C3.43251 22.3904 3.65401 22.4781 3.92401 22.4781H17.0775C17.3465 22.4781 17.5675 22.3904 17.7405 22.2148C17.9135 22.0393 18 21.8151 18 21.5422V2.69372ZM7.962 19.4344C8.175 19.4344 8.3535 19.3613 8.4975 19.2152C8.6415 19.0691 8.713 18.8885 8.712 18.6734V6.49841C8.712 6.28231 8.64 6.10171 8.496 5.95663C8.352 5.81154 8.1735 5.73849 7.9605 5.73748C7.7475 5.73646 7.5695 5.80951 7.4265 5.95663C7.2835 6.10374 7.212 6.28434 7.212 6.49841V18.6734C7.212 18.8895 7.284 19.0701 7.428 19.2152C7.572 19.3613 7.75 19.4344 7.962 19.4344ZM13.0395 19.4344C13.2525 19.4344 13.4305 19.3613 13.5735 19.2152C13.7165 19.0691 13.788 18.8885 13.788 18.6734V6.49841C13.788 6.28231 13.716 6.10171 13.572 5.95663C13.428 5.81053 13.25 5.73748 13.038 5.73748C12.825 5.73748 12.6465 5.81053 12.5025 5.95663C12.3585 6.10273 12.287 6.28332 12.288 6.49841V18.6734C12.288 18.8895 12.36 19.0701 12.504 19.2152C12.648 19.3603 12.8265 19.4334 13.0395 19.4344Z" fill="white"/>
</svg>
