<svg width="50" height="50" viewBox="0 0 50 50" fill="none" xmlns="http://www.w3.org/2000/svg">
<path d="M6.25 18.75V35.4166C6.25 36.5217 6.68899 37.5815 7.47039 38.3629C8.25179 39.1443 9.3116 39.5833 10.4167 39.5833H39.5833C40.6884 39.5833 41.7482 39.1443 42.5296 38.3629C43.311 37.5815 43.75 36.5217 43.75 35.4166V18.75M6.25 18.75V14.5833C6.25 13.4782 6.68899 12.4184 7.47039 11.637C8.25179 10.8556 9.3116 10.4166 10.4167 10.4166H39.5833C40.6884 10.4166 41.7482 10.8556 42.5296 11.637C43.311 12.4184 43.75 13.4782 43.75 14.5833V18.75M6.25 18.75H43.75M14.5833 27.0833H25" stroke="#878787" stroke-width="2" stroke-linecap="round" stroke-linejoin="round"/>
</svg>
