<svg width="30" height="40" viewBox="0 0 30 40" fill="none" xmlns="http://www.w3.org/2000/svg">
<g clip-path="url(#clip0_659_168)">
<path d="M9.37498 5.625C9.37498 2.51836 11.8933 0 15 0C18.1066 0 20.625 2.51836 20.625 5.625C20.625 8.73164 18.1066 11.25 15 11.25C11.8933 11.25 9.37498 8.73156 9.37498 5.625ZM29.2677 5.73227C28.2915 4.75594 26.7085 4.75594 25.7322 5.73227L18.9644 12.5H11.0354L4.26771 5.73227C3.29146 4.75594 1.7085 4.75594 0.732246 5.73227C-0.244082 6.70859 -0.244082 8.29148 0.732246 9.26781L8.12498 16.6605V37.5C8.12498 38.8807 9.24428 40 10.625 40H11.875C13.2557 40 14.375 38.8807 14.375 37.5V28.75H15.625V37.5C15.625 38.8807 16.7443 40 18.125 40H19.375C20.7557 40 21.875 38.8807 21.875 37.5V16.6605L29.2677 9.26773C30.244 8.29141 30.244 6.70859 29.2677 5.73227Z" fill="#059669"/>
</g>
<defs>
<clipPath id="clip0_659_168">
<rect width="30" height="40" fill="white"/>
</clipPath>
</defs>
</svg>
