<svg width="85" height="85" viewBox="0 0 85 85" fill="none" xmlns="http://www.w3.org/2000/svg">
<path d="M24.7913 21.25C21.9734 21.25 19.2709 22.3694 17.2783 24.362C15.2858 26.3546 14.1663 29.0571 14.1663 31.875H70.833C70.833 29.0571 69.7136 26.3546 67.721 24.362C65.7284 22.3694 63.0259 21.25 60.208 21.25H24.7913ZM24.7913 63.75C21.9734 63.75 19.2709 62.6306 17.2783 60.638C15.2858 58.6454 14.1663 55.9429 14.1663 53.125H70.833C70.833 55.9429 69.7136 58.6454 67.721 60.638C65.7284 62.6306 63.0259 63.75 60.208 63.75H24.7913ZM10.6247 38.9583C9.68537 38.9583 8.78453 39.3315 8.12034 39.9957C7.45615 40.6599 7.08301 41.5607 7.08301 42.5C7.08301 43.4393 7.45615 44.3401 8.12034 45.0043C8.78453 45.6685 9.68537 46.0417 10.6247 46.0417H74.3747C75.314 46.0417 76.2148 45.6685 76.879 45.0043C77.5432 44.3401 77.9163 43.4393 77.9163 42.5C77.9163 41.5607 77.5432 40.6599 76.879 39.9957C76.2148 39.3315 75.314 38.9583 74.3747 38.9583H10.6247Z" fill="#059669"/>
</svg>
