<svg width="85" height="85" viewBox="0 0 85 85" fill="none" xmlns="http://www.w3.org/2000/svg">
<path d="M28.6878 47.2459L38.7108 37.2229L13.8483 12.3959C11.1968 15.0577 9.70801 18.6617 9.70801 22.4188C9.70801 26.1759 11.1968 29.7799 13.8483 32.4417L28.6878 47.2459ZM52.7003 40.8354C58.1191 43.35 65.7337 41.5792 71.3649 35.9479C78.1295 29.1834 79.4399 19.4792 74.2337 14.2729C69.0628 9.10212 59.3587 10.3771 52.5587 17.1417C46.9274 22.7729 45.1566 30.3875 47.6712 35.8063L13.1045 70.3729L18.0983 75.3667L42.5003 51.0354L66.867 75.4021L71.8608 70.4084L47.4941 46.0417L52.7003 40.8354Z" fill="#FFA12E"/>
</svg>
