<svg width="28" height="30" viewBox="0 0 28 30" fill="none" xmlns="http://www.w3.org/2000/svg">
<path d="M6.33398 24.0947L5.58496 23.9004C4.70811 23.6732 3.99369 23.339 3.38672 22.835L3.13281 22.6084L3.13184 22.6074L2.80078 22.2734C2.54129 21.9961 2.3209 21.7177 2.13477 21.4189L2.02734 21.2373C1.78439 20.8029 1.61131 20.3261 1.48926 19.7607L1.43945 19.5127C1.2028 18.2093 1.19922 16.4218 1.19922 13.6387V13.3574C1.19922 10.5182 1.20168 8.34375 1.4375 6.65625C1.68147 4.91776 2.17594 3.69478 3.13281 2.77734L3.13184 2.77637C4.06444 1.88342 5.26545 1.44456 6.98145 1.22266L6.98047 1.22168C8.7019 1.00102 10.9387 1 13.9385 1H14.0596C16.685 1 18.7256 1.00119 20.3477 1.15039L21.0176 1.22363L21.0186 1.22461C22.6275 1.43135 23.7815 1.82969 24.6875 2.61523L24.8652 2.77734H24.8662C25.763 3.63729 26.2538 4.76577 26.5127 6.33691L26.5615 6.65723C26.7974 8.34319 26.7988 10.5178 26.7988 13.3574V13.6387C26.7988 16.0738 26.796 17.7467 26.6367 19L26.5586 19.5127C26.4508 20.1047 26.2943 20.6009 26.0703 21.0479L25.9697 21.2373L25.9688 21.2383C25.7628 21.6062 25.5089 21.9411 25.1973 22.2744L24.8662 22.6074C24.0502 23.3889 23.0297 23.8242 21.6377 24.0693L21.0176 24.1631C19.2961 24.3837 17.0593 24.3857 14.0596 24.3857H13.999C12.534 24.3858 11.3942 24.9185 10.3516 25.6592L9.91016 25.9883L9.90234 25.9941C9.6683 26.1799 9.43637 26.3698 9.20703 26.5635L8.52637 27.1562L8.14844 27.4854C7.58274 27.9764 6.99224 28.4704 6.34277 28.9268C6.33739 28.9028 6.33403 28.8758 6.33398 28.8467V24.0947Z" stroke="#333333" stroke-width="2"/>
</svg>
